<svg id="visual" viewBox="0 0 900 300" width="900" height="300" xmlns="http://www.w3.org/2000/svg" xmlns:xlink="http://www.w3.org/1999/xlink" version="1.1"><rect x="0" y="0" width="900" height="300" fill="#eff7fb"></rect><path d="M0 265L13.7 262.2C27.3 259.3 54.7 253.7 82 250.5C109.3 247.3 136.7 246.7 163.8 246.2C191 245.7 218 245.3 245.2 246.2C272.3 247 299.7 249 327 252.2C354.3 255.3 381.7 259.7 409 260.7C436.3 261.7 463.7 259.3 491 257.8C518.3 256.3 545.7 255.7 573 256.7C600.3 257.7 627.7 260.3 654.8 260.3C682 260.3 709 257.7 736.2 255.2C763.3 252.7 790.7 250.3 818 248.7C845.3 247 872.7 246 886.3 245.5L900 245L900 301L886.3 301C872.7 301 845.3 301 818 301C790.7 301 763.3 301 736.2 301C709 301 682 301 654.8 301C627.7 301 600.3 301 573 301C545.7 301 518.3 301 491 301C463.7 301 436.3 301 409 301C381.7 301 354.3 301 327 301C299.7 301 272.3 301 245.2 301C218 301 191 301 163.8 301C136.7 301 109.3 301 82 301C54.7 301 27.3 301 13.7 301L0 301Z" fill="#536bd7"></path><path d="M0 272L13.7 269C27.3 266 54.7 260 82 258C109.3 256 136.7 258 163.8 259.2C191 260.3 218 260.7 245.2 262.5C272.3 264.3 299.7 267.7 327 267C354.3 266.3 381.7 261.7 409 260.5C436.3 259.3 463.7 261.7 491 261.5C518.3 261.3 545.7 258.7 573 258.2C600.3 257.7 627.7 259.3 654.8 258.8C682 258.3 709 255.7 736.2 256.2C763.3 256.7 790.7 260.3 818 261.2C845.3 262 872.7 260 886.3 259L900 258L900 301L886.3 301C872.7 301 845.3 301 818 301C790.7 301 763.3 301 736.2 301C709 301 682 301 654.8 301C627.7 301 600.3 301 573 301C545.7 301 518.3 301 491 301C463.7 301 436.3 301 409 301C381.7 301 354.3 301 327 301C299.7 301 272.3 301 245.2 301C218 301 191 301 163.8 301C136.7 301 109.3 301 82 301C54.7 301 27.3 301 13.7 301L0 301Z" fill="#7b87e2"></path><path d="M0 265L13.7 265.3C27.3 265.7 54.7 266.3 82 268.8C109.3 271.3 136.7 275.7 163.8 276.3C191 277 218 274 245.2 271.5C272.3 269 299.7 267 327 266.5C354.3 266 381.7 267 409 267.2C436.3 267.3 463.7 266.7 491 267.8C518.3 269 545.7 272 573 273.5C600.3 275 627.7 275 654.8 274.3C682 273.7 709 272.3 736.2 273.2C763.3 274 790.7 277 818 276.2C845.3 275.3 872.7 270.7 886.3 268.3L900 266L900 301L886.3 301C872.7 301 845.3 301 818 301C790.7 301 763.3 301 736.2 301C709 301 682 301 654.8 301C627.7 301 600.3 301 573 301C545.7 301 518.3 301 491 301C463.7 301 436.3 301 409 301C381.7 301 354.3 301 327 301C299.7 301 272.3 301 245.2 301C218 301 191 301 163.8 301C136.7 301 109.3 301 82 301C54.7 301 27.3 301 13.7 301L0 301Z" fill="#9ea4ec"></path><path d="M0 282L13.7 282.5C27.3 283 54.7 284 82 284.5C109.3 285 136.7 285 163.8 285.5C191 286 218 287 245.2 287.5C272.3 288 299.7 288 327 288C354.3 288 381.7 288 409 287.5C436.3 287 463.7 286 491 286C518.3 286 545.7 287 573 285C600.3 283 627.7 278 654.8 276.8C682 275.7 709 278.3 736.2 278.8C763.3 279.3 790.7 277.7 818 277.3C845.3 277 872.7 278 886.3 278.5L900 279L900 301L886.3 301C872.7 301 845.3 301 818 301C790.7 301 763.3 301 736.2 301C709 301 682 301 654.8 301C627.7 301 600.3 301 573 301C545.7 301 518.3 301 491 301C463.7 301 436.3 301 409 301C381.7 301 354.3 301 327 301C299.7 301 272.3 301 245.2 301C218 301 191 301 163.8 301C136.7 301 109.3 301 82 301C54.7 301 27.3 301 13.7 301L0 301Z" fill="#bfc2f6"></path><path d="M0 287L13.7 288.3C27.3 289.7 54.7 292.3 82 292C109.3 291.7 136.7 288.3 163.8 286.7C191 285 218 285 245.2 285.3C272.3 285.7 299.7 286.3 327 288.2C354.3 290 381.7 293 409 293.3C436.3 293.7 463.7 291.3 491 290.7C518.3 290 545.7 291 573 290.2C600.3 289.3 627.7 286.7 654.8 285.7C682 284.7 709 285.3 736.2 286.2C763.3 287 790.7 288 818 288.7C845.3 289.3 872.7 289.7 886.3 289.8L900 290L900 301L886.3 301C872.7 301 845.3 301 818 301C790.7 301 763.3 301 736.2 301C709 301 682 301 654.8 301C627.7 301 600.3 301 573 301C545.7 301 518.3 301 491 301C463.7 301 436.3 301 409 301C381.7 301 354.3 301 327 301C299.7 301 272.3 301 245.2 301C218 301 191 301 163.8 301C136.7 301 109.3 301 82 301C54.7 301 27.3 301 13.7 301L0 301Z" fill="#e0e1ff"></path></svg>