<svg id="visual" viewBox="0 0 900 300" width="900" height="300" xmlns="http://www.w3.org/2000/svg" xmlns:xlink="http://www.w3.org/1999/xlink" version="1.1"><rect x="0" y="0" width="900" height="300" fill="#FBF3EF"></rect><path d="M0 231L21.5 225.2C43 219.3 86 207.7 128.8 207.5C171.7 207.3 214.3 218.7 257.2 225.3C300 232 343 234 385.8 232.7C428.7 231.3 471.3 226.7 514.2 222.3C557 218 600 214 642.8 209.7C685.7 205.3 728.3 200.7 771.2 199.8C814 199 857 202 878.5 203.5L900 205L900 301L878.5 301C857 301 814 301 771.2 301C728.3 301 685.7 301 642.8 301C600 301 557 301 514.2 301C471.3 301 428.7 301 385.8 301C343 301 300 301 257.2 301C214.3 301 171.7 301 128.8 301C86 301 43 301 21.5 301L0 301Z" fill="#8789c0"></path><path d="M0 231L21.5 231.5C43 232 86 233 128.8 235.3C171.7 237.7 214.3 241.3 257.2 240C300 238.7 343 232.3 385.8 232.3C428.7 232.3 471.3 238.7 514.2 238.7C557 238.7 600 232.3 642.8 231.8C685.7 231.3 728.3 236.7 771.2 239.3C814 242 857 242 878.5 242L900 242L900 301L878.5 301C857 301 814 301 771.2 301C728.3 301 685.7 301 642.8 301C600 301 557 301 514.2 301C471.3 301 428.7 301 385.8 301C343 301 300 301 257.2 301C214.3 301 171.7 301 128.8 301C86 301 43 301 21.5 301L0 301Z" fill="#91a1ce"></path><path d="M0 228L21.5 232.7C43 237.3 86 246.7 128.8 248.7C171.7 250.7 214.3 245.3 257.2 241.7C300 238 343 236 385.8 235.7C428.7 235.3 471.3 236.7 514.2 239C557 241.3 600 244.7 642.8 247.5C685.7 250.3 728.3 252.7 771.2 249.2C814 245.7 857 236.3 878.5 231.7L900 227L900 301L878.5 301C857 301 814 301 771.2 301C728.3 301 685.7 301 642.8 301C600 301 557 301 514.2 301C471.3 301 428.7 301 385.8 301C343 301 300 301 257.2 301C214.3 301 171.7 301 128.8 301C86 301 43 301 21.5 301L0 301Z" fill="#a1b8db"></path><path d="M0 270L21.5 269.5C43 269 86 268 128.8 264C171.7 260 214.3 253 257.2 250.3C300 247.7 343 249.3 385.8 252.3C428.7 255.3 471.3 259.7 514.2 258.7C557 257.7 600 251.3 642.8 251C685.7 250.7 728.3 256.3 771.2 256.2C814 256 857 250 878.5 247L900 244L900 301L878.5 301C857 301 814 301 771.2 301C728.3 301 685.7 301 642.8 301C600 301 557 301 514.2 301C471.3 301 428.7 301 385.8 301C343 301 300 301 257.2 301C214.3 301 171.7 301 128.8 301C86 301 43 301 21.5 301L0 301Z" fill="#b6cee5"></path><path d="M0 279L21.5 276.8C43 274.7 86 270.3 128.8 270.3C171.7 270.3 214.3 274.7 257.2 276.8C300 279 343 279 385.8 275.7C428.7 272.3 471.3 265.7 514.2 262.7C557 259.7 600 260.3 642.8 259.7C685.7 259 728.3 257 771.2 258.3C814 259.7 857 264.3 878.5 266.7L900 269L900 301L878.5 301C857 301 814 301 771.2 301C728.3 301 685.7 301 642.8 301C600 301 557 301 514.2 301C471.3 301 428.7 301 385.8 301C343 301 300 301 257.2 301C214.3 301 171.7 301 128.8 301C86 301 43 301 21.5 301L0 301Z" fill="#d1e3f0"></path><path d="M0 276L21.5 277.8C43 279.7 86 283.3 128.8 284C171.7 284.7 214.3 282.3 257.2 279.5C300 276.7 343 273.3 385.8 274.5C428.7 275.7 471.3 281.3 514.2 284.3C557 287.3 600 287.7 642.8 285.7C685.7 283.7 728.3 279.3 771.2 278.7C814 278 857 281 878.5 282.5L900 284L900 301L878.5 301C857 301 814 301 771.2 301C728.3 301 685.7 301 642.8 301C600 301 557 301 514.2 301C471.3 301 428.7 301 385.8 301C343 301 300 301 257.2 301C214.3 301 171.7 301 128.8 301C86 301 43 301 21.5 301L0 301Z" fill="#eff7fb"></path></svg>