<svg id="visual" viewBox="0 0 900 300" width="900" height="300" xmlns="http://www.w3.org/2000/svg" xmlns:xlink="http://www.w3.org/1999/xlink" version="1.1"><rect x="0" y="0" width="900" height="300" fill="#e0e1ff"></rect><path d="M0 270L12.5 267.7C25 265.3 50 260.7 75 258.3C100 256 125 256 150 258.2C175 260.3 200 264.7 225 264C250 263.3 275 257.7 300 256C325 254.3 350 256.7 375 259.3C400 262 425 265 450 266C475 267 500 266 525 264.5C550 263 575 261 600 261.3C625 261.7 650 264.3 675 266C700 267.7 725 268.3 750 266.3C775 264.3 800 259.7 825 256.7C850 253.7 875 252.3 887.5 251.7L900 251L900 301L887.5 301C875 301 850 301 825 301C800 301 775 301 750 301C725 301 700 301 675 301C650 301 625 301 600 301C575 301 550 301 525 301C500 301 475 301 450 301C425 301 400 301 375 301C350 301 325 301 300 301C275 301 250 301 225 301C200 301 175 301 150 301C125 301 100 301 75 301C50 301 25 301 12.5 301L0 301Z" fill="#fa7268"></path><path d="M0 277L12.5 276.8C25 276.7 50 276.3 75 275.5C100 274.7 125 273.3 150 273.3C175 273.3 200 274.7 225 275.5C250 276.3 275 276.7 300 276.7C325 276.7 350 276.3 375 275.8C400 275.3 425 274.7 450 273.3C475 272 500 270 525 268.8C550 267.7 575 267.3 600 268.3C625 269.3 650 271.7 675 270.7C700 269.7 725 265.3 750 263.2C775 261 800 261 825 261.8C850 262.7 875 264.3 887.5 265.2L900 266L900 301L887.5 301C875 301 850 301 825 301C800 301 775 301 750 301C725 301 700 301 675 301C650 301 625 301 600 301C575 301 550 301 525 301C500 301 475 301 450 301C425 301 400 301 375 301C350 301 325 301 300 301C275 301 250 301 225 301C200 301 175 301 150 301C125 301 100 301 75 301C50 301 25 301 12.5 301L0 301Z" fill="#fda18b"></path><path d="M0 272L12.5 272.3C25 272.7 50 273.3 75 275.3C100 277.3 125 280.7 150 280.7C175 280.7 200 277.3 225 275.8C250 274.3 275 274.7 300 274.2C325 273.7 350 272.3 375 271.7C400 271 425 271 450 273.2C475 275.3 500 279.7 525 281.8C550 284 575 284 600 284C625 284 650 284 675 284.2C700 284.3 725 284.7 750 283.8C775 283 800 281 825 280.5C850 280 875 281 887.5 281.5L900 282L900 301L887.5 301C875 301 850 301 825 301C800 301 775 301 750 301C725 301 700 301 675 301C650 301 625 301 600 301C575 301 550 301 525 301C500 301 475 301 450 301C425 301 400 301 375 301C350 301 325 301 300 301C275 301 250 301 225 301C200 301 175 301 150 301C125 301 100 301 75 301C50 301 25 301 12.5 301L0 301Z" fill="#feccb8"></path><path d="M0 285L12.5 286.2C25 287.3 50 289.7 75 290.8C100 292 125 292 150 290.3C175 288.7 200 285.3 225 284.8C250 284.3 275 286.7 300 288C325 289.3 350 289.7 375 289C400 288.3 425 286.7 450 286.2C475 285.7 500 286.3 525 287.5C550 288.7 575 290.3 600 289.5C625 288.7 650 285.3 675 284.5C700 283.7 725 285.3 750 286.2C775 287 800 287 825 286.3C850 285.7 875 284.3 887.5 283.7L900 283L900 301L887.5 301C875 301 850 301 825 301C800 301 775 301 750 301C725 301 700 301 675 301C650 301 625 301 600 301C575 301 550 301 525 301C500 301 475 301 450 301C425 301 400 301 375 301C350 301 325 301 300 301C275 301 250 301 225 301C200 301 175 301 150 301C125 301 100 301 75 301C50 301 25 301 12.5 301L0 301Z" fill="#fbf3ef"></path></svg>